<svg width="70" height="70" fill="none" xmlns="http://www.w3.org/2000/svg"><path d="M19.185 12.565c1.08-.763-.102-2.438-1.183-1.675A29.56 29.56 0 005.502 35c0 7.879 3.069 15.286 8.64 20.858 5.572 5.57 12.979 8.64 20.858 8.64 16.1 0 29.497-13.403 29.497-29.498 0-7.879-3.068-15.286-8.64-20.858-5.57-5.57-12.978-8.64-20.857-8.64-4.032 0-7.94.8-11.615 2.376-1.216.521-.408 2.406.808 1.885A27.265 27.265 0 0135 7.553c1.523 0 3.017.127 4.473.367l-14.39 24.974-9.792-16.99a27.445 27.445 0 013.894-3.339zM9.302 44.64h28.89l-9.873 16.983c-8.767-2.2-15.873-8.629-19.017-16.983zm30.036-17.227L43.762 35l-4.381 7.588h-8.71l-4.403-7.64 4.351-7.536h8.72zM35 62.446c-1.555 0-3.08-.132-4.565-.382l14.584-25.09 9.98 16.802c-5.01 5.333-12.121 8.67-19.999 8.67zm21.416-10.302L42.618 28.918l-.87-1.506h19.63A27.373 27.373 0 0162.447 35c0 6.481-2.26 12.444-6.03 17.144zm4.282-26.783H31.79l9.8-17.006c8.81 2.18 15.954 8.623 19.109 17.006zM28.25 42.588H8.621A27.372 27.372 0 017.554 35a27.49 27.49 0 016.298-17.486l14.4 25.074z" fill="#000"/><path d="M59.749 10.251C53.139 3.641 44.349 0 35 0c-9.349 0-18.138 3.64-24.749 10.251C3.641 16.861 0 25.651 0 35c0 9.349 3.64 18.138 10.251 24.749C16.861 66.359 25.651 70 35 70a35.034 35.034 0 0016.902-4.344c1.158-.64.166-2.435-.992-1.796A32.977 32.977 0 0135 67.95c-8.801 0-17.075-3.428-23.299-9.651C5.478 52.075 2.051 43.8 2.051 35s3.427-17.075 9.65-23.299C17.925 5.478 26.2 2.051 35 2.051s17.075 3.427 23.299 9.65c6.223 6.224 9.65 14.498 9.65 23.299 0 10.073-4.519 19.46-12.398 25.756-1.033.826.247 2.428 1.28 1.602C65.201 55.672 70 45.7 70 35c0-9.349-3.64-18.138-10.251-24.749z" fill="#000"/></svg>