<svg width="70" height="70" fill="none" xmlns="http://www.w3.org/2000/svg"><path d="M59.749 10.251C53.139 3.641 44.349 0 35 0c-9.349 0-18.138 3.64-24.749 10.251C3.641 16.861 0 25.651 0 35c0 9.349 3.64 18.138 10.251 24.749C16.861 66.359 25.651 70 35 70a35.045 35.045 0 0016.761-4.267c1.16-.634.178-2.434-.983-1.8A32.988 32.988 0 0135 67.95c-8.801 0-17.075-3.427-23.299-9.65-6.223-6.225-9.65-14.5-9.65-23.3s3.427-17.075 9.65-23.299C17.925 5.478 26.2 2.051 35 2.051s17.075 3.427 23.299 9.65c6.223 6.224 9.65 14.498 9.65 23.299 0 5.216-1.183 10.204-3.516 14.826a33.26 33.26 0 01-9.412 11.345c-1.05.804.197 2.433 1.247 1.628a35.322 35.322 0 009.996-12.049C68.744 45.84 70 40.54 70 35c0-9.349-3.64-18.138-10.251-24.749z" fill="#000"/><path d="M55.398 14.602c.2.2.463.3.725.3.87 0 1.35-1.125.725-1.75C51.012 7.315 43.253 4.101 35 4.101c-1.323 0-1.323 2.05 0 2.05 7.705 0 14.95 3.001 20.398 8.45zM14.601 55.398c-.949-.949-2.357.543-1.45 1.45 5.836 5.836 13.595 9.05 21.849 9.05 1.322 0 1.322-2.05 0-2.05-7.706 0-14.95-3.001-20.399-8.45z" fill="#000"/><path d="M60.754 35C60.754 20.8 49.201 9.246 35 9.246c-2.52 0-5.012.364-7.404 1.08-1.267.38-.678 2.344.589 1.965A23.721 23.721 0 0135 11.297c13.07 0 23.703 10.633 23.703 23.703S48.07 58.704 35 58.704 11.296 48.07 11.296 35c0-4.194 1.11-8.314 3.209-11.916a23.851 23.851 0 018.439-8.497c1.138-.673.094-2.437-1.045-1.764a25.907 25.907 0 00-9.166 9.229A25.74 25.74 0 009.246 35c0 14.201 11.553 25.755 25.754 25.755C49.2 60.755 60.754 49.2 60.754 35z" fill="#000"/><path d="M13.347 35c0 11.94 9.714 21.653 21.653 21.653 11.94 0 21.653-9.713 21.653-21.653 0-11.939-9.714-21.652-21.653-21.652-11.94 0-21.653 9.713-21.653 21.652zM35 15.398c10.808 0 19.602 8.794 19.602 19.602 0 10.809-8.794 19.602-19.602 19.602-10.809 0-19.602-8.793-19.602-19.602 0-10.808 8.793-19.602 19.602-19.602z" fill="#000"/><path d="M35 47.84c7.08 0 12.84-5.76 12.84-12.84S42.08 22.162 35 22.162s-12.84 5.76-12.84 12.84S27.92 47.84 35 47.84zm0-23.628c5.95 0 10.789 4.84 10.789 10.789 0 5.948-4.84 10.788-10.789 10.788s-10.789-4.84-10.789-10.788c0-5.95 4.84-10.79 10.79-10.79z" fill="#000"/><path d="M38.156 36.832a4.259 4.259 0 004.254-4.254 4.259 4.259 0 00-4.254-4.254 4.259 4.259 0 00-4.255 4.254 4.259 4.259 0 004.255 4.254zm0-6.457c1.214 0 2.203.988 2.203 2.203a2.206 2.206 0 01-2.203 2.204 2.206 2.206 0 01-2.204-2.204c0-1.215.989-2.203 2.204-2.203z" fill="#000"/></svg>