<svg width="70" height="70" fill="none" xmlns="http://www.w3.org/2000/svg"><path d="M21.875 67.813h26.25a1.093 1.093 0 001.094-1.094v-3.281h2.187a1.094 1.094 0 001.094-1.094v-8.75h2.188A1.094 1.094 0 0055.78 52.5v-4.375a1.094 1.094 0 00-1.093-1.094H52.5V40.47h2.188a1.094 1.094 0 001.093-1.094v-22.97a1.094 1.094 0 00-1.093-1.093h-.897L55.767 3.46a1.094 1.094 0 00-1.08-1.273H49.22a1.094 1.094 0 00-1.038.747l-.844 2.534h-2.862c-.973-1.915-3.039-3.282-5.1-3.282h-8.75c-2.06 0-4.127 1.367-5.1 3.282h-2.862l-.844-2.534a1.094 1.094 0 00-1.038-.748h-5.468a1.094 1.094 0 00-1.08 1.274l1.976 11.851h-.896a1.093 1.093 0 00-1.094 1.094v22.969a1.094 1.094 0 001.094 1.094H17.5v6.562h-2.187a1.094 1.094 0 00-1.094 1.094V52.5a1.094 1.094 0 001.094 1.094H17.5v8.75a1.093 1.093 0 001.094 1.093h2.187v3.282a1.094 1.094 0 001.094 1.094zm24.063-6.563H24.063v-3.281h21.875v3.281zm1.093 4.375H22.97v-2.188h24.06v2.188zm-30.625-43.75h2.188v12.031h-2.188V21.875zm37.188-2.188H16.406V17.5h37.188v2.188zM20.78 21.875h2.188v12.031H20.78V21.875zm4.375 0h2.188v12.031h-2.188V21.875zm4.375 0h2.188v12.031H29.53V21.875zm4.375 0h2.188v12.031h-2.188V21.875zm4.375 0h2.188v12.031H38.28V21.875zm4.375 0h2.188v12.031h-2.188V21.875zm4.375 0h2.188v12.031H47.03V21.875zm4.375 0h2.188v12.031h-2.188V21.875zm-34.802-17.5h3.389l.844 2.533a1.094 1.094 0 001.038.748h4.375a1.094 1.094 0 001.038-.748c.466-1.397 1.962-2.533 3.337-2.533h8.75c1.375 0 2.871 1.136 3.337 2.533a1.094 1.094 0 001.038.748h4.375a1.094 1.094 0 001.038-.748l.844-2.533h3.39l-1.823 10.938H18.427L16.604 4.374zm-.198 31.719h37.188v2.187H16.406v-2.187zm3.282 4.375h30.625v6.562H19.688V40.47zm-3.282 8.75h37.188v2.187H16.406V49.22zm3.282 4.375h30.625v7.656h-2.188v-4.375a1.094 1.094 0 00-1.094-1.094H22.97a1.094 1.094 0 00-1.094 1.094v4.375h-2.187v-7.656z" fill="#000"/><path d="M47.031 42.656H22.97a1.094 1.094 0 000 2.188h24.06a1.094 1.094 0 000-2.188z" fill="#000"/></svg>