<svg width="70" height="70" fill="none" xmlns="http://www.w3.org/2000/svg"><g clip-path="url(#clip0_0_110)" fill="#000"><path d="M66.213 0h-4.507a1.025 1.025 0 100 2.05h4.507c.957 0 1.736.78 1.736 1.737v15.548h-3.474V6.55c0-.566-.459-1.025-1.025-1.025H50.665V2.05h6.243a1.025 1.025 0 100-2.051H49.64c-.567 0-1.026.46-1.026 1.025V6.55c0 .566.46 1.026 1.026 1.026h12.784V20.36c0 .566.46 1.026 1.026 1.026h5.524c.567 0 1.026-.46 1.026-1.026V3.787A3.791 3.791 0 0066.213 0zM1.025 21.386H6.55c.566 0 1.025-.46 1.025-1.025V7.575h12.786c.566 0 1.025-.459 1.025-1.025V1.025C21.386.46 20.927 0 20.361 0H3.788A3.792 3.792 0 000 3.788V20.36c0 .566.459 1.025 1.025 1.025zM2.051 3.788c0-.958.779-1.737 1.737-1.737h15.547v3.473H6.55c-.567 0-1.026.46-1.026 1.026v12.785H2.051V3.788zm66.924 44.826H63.45c-.567 0-1.026.46-1.026 1.026v12.785H49.64c-.567 0-1.026.46-1.026 1.025v5.525c0 .566.46 1.025 1.026 1.025h16.573A3.792 3.792 0 0070 66.213V49.64c0-.567-.459-1.026-1.025-1.026zM67.95 66.213a1.74 1.74 0 01-1.737 1.737H50.665v-3.474h12.786c.566 0 1.025-.46 1.025-1.026V50.665h3.474v15.548zm-47.59-3.789h-3.095a1.025 1.025 0 100 2.051h2.07v3.474H3.787a1.738 1.738 0 01-1.736-1.736V50.665h3.474V63.45c0 .566.459 1.025 1.025 1.025h5.916a1.025 1.025 0 100-2.05h-4.89V49.64c0-.567-.46-1.026-1.026-1.026H1.025C.46 48.614 0 49.074 0 49.64v16.573A3.791 3.791 0 003.787 70H20.36c.567 0 1.026-.46 1.026-1.026V63.45c0-.567-.46-1.026-1.026-1.026zm39.121-26.399h5.903a1.025 1.025 0 100-2.05H59.48c-.525-12.698-10.758-22.93-23.456-23.456V4.616a1.025 1.025 0 10-2.05 0v5.902a24.378 24.378 0 00-15.902 6.766 1.025 1.025 0 101.417 1.482 22.349 22.349 0 0115.505-6.22l.005.001h.005c12.376.003 22.445 10.07 22.448 22.447v.012C57.45 47.382 47.381 57.45 35.005 57.453h-.01c-12.377-.003-22.445-10.07-22.448-22.447v-.013a22.321 22.321 0 013.967-12.74 1.025 1.025 0 00-1.687-1.166 24.344 24.344 0 00-4.31 12.888h-5.9a1.025 1.025 0 100 2.05h5.902c.525 12.698 10.758 22.93 23.456 23.456v5.903a1.025 1.025 0 102.05 0V59.48c12.698-.525 22.93-10.758 23.456-23.456z"/><path d="M35 29.278A5.728 5.728 0 0029.277 35 5.728 5.728 0 0035 40.721a5.728 5.728 0 005.722-5.722A5.728 5.728 0 0035 29.279zm0 9.392A3.674 3.674 0 0131.33 35 3.674 3.674 0 0135 31.33 3.674 3.674 0 0138.67 35 3.675 3.675 0 0135 38.67zm11.245-13.89c0-.566-.458-1.025-1.025-1.025h-4.696a1.025 1.025 0 100 2.05h3.67v3.67a1.025 1.025 0 102.051 0V24.78zm-16.769-1.025H24.78c-.566 0-1.025.459-1.025 1.025v4.696a1.025 1.025 0 102.05 0v-3.67h3.671a1.025 1.025 0 100-2.051zM45.22 39.499c-.566 0-1.025.46-1.025 1.025v3.67h-3.67a1.025 1.025 0 100 2.051h4.695c.567 0 1.026-.459 1.026-1.025v-4.696c0-.566-.46-1.025-1.026-1.025zM23.755 45.22c0 .566.459 1.025 1.025 1.025h4.696a1.025 1.025 0 100-2.05h-3.67v-3.67a1.025 1.025 0 10-2.051 0v4.695z"/></g><defs><clipPath id="clip0_0_110"><path fill="#fff" d="M0 0h70v70H0z"/></clipPath></defs></svg>